<svg xmlns="http://www.w3.org/2000/svg" width="407.333" height="75"><polygon fill="#222521" points="284.618,12.728 255.085,1.634 225.56,12.728 225.56,62.263 255.092,73.356 284.618,62.263"/><g stroke="#E1D1A3" stroke-width="2" stroke-miterlimit="10" fill="none"><path d="M252.007 38.157c0-2.159-1.751-3.908-3.911-3.908-2.156 0-3.908 1.749-3.908 3.908 0 2.162 1.752 3.912 3.908 3.912 2.16 0 3.911-1.75 3.911-3.912zM266.133 38.157c0-2.159-1.75-3.908-3.909-3.908-2.161 0-3.909 1.749-3.909 3.908 0 2.162 1.748 3.912 3.909 3.912 2.159 0 3.909-1.75 3.909-3.912z"/><circle cx="262.224" cy="52.284" r="3.909"/><path d="M252.007 52.284c0-2.16-1.751-3.91-3.911-3.91-2.156 0-3.908 1.75-3.908 3.91s1.752 3.91 3.908 3.91c2.16 0 3.911-1.75 3.911-3.91z"/></g><polygon fill="#E1D1A3" points="281.29,15.431 255.085,5.527 228.899,15.429 228.899,21.812 255.085,11.91 281.29,21.815"/><polygon fill="#E1D1A3" points="281.29,25.567 255.085,15.662 228.899,25.564 228.899,31.949 255.085,22.046 281.29,31.952"/><g fill="#222521"><path d="M305.493 44.548h10.518v7.822h-19.289v-35.528h8.771v27.706zM329.258 46.197l-2.327 6.173h-9.31l12.979-35.528h9.577l12.711 35.528h-9.354l-2.192-6.173h-12.084zm6.131-18.376h-.089l-3.626 11.309h7.295l-3.58-11.309zM355.62 52.37v-35.528h12.531c5.997 0 10.025 2.45 10.025 9.235 0 3.204-.985 5.795-3.715 7.256v.094c4.833.66 6.892 4.099 6.892 9.047 0 7.444-6.042 9.895-12.218 9.895h-13.515zm8.771-21.58h.984c2.328 0 4.744-.424 4.744-3.44 0-3.251-2.729-3.439-5.102-3.439h-.627v6.879zm0 14.512h1.119c2.596 0 6.981.142 6.981-3.77 0-4.287-4.341-3.863-7.205-3.863h-.896v7.633zM401.762 25.983c-1.611-1.414-3.67-2.356-5.818-2.356-1.611 0-3.76.99-3.76 2.968 0 2.073 2.372 2.875 3.894 3.393l2.237.707c4.699 1.461 8.324 3.958 8.324 9.706 0 3.534-.805 7.162-3.49 9.565-2.641 2.356-6.176 3.346-9.577 3.346-4.252 0-8.414-1.508-11.86-4.052l3.76-7.445c2.193 2.026 4.789 3.676 7.787 3.676 2.059 0 4.252-1.084 4.252-3.582 0-2.591-3.446-3.486-5.326-4.052-5.504-1.649-9.13-3.157-9.13-10.036 0-7.209 4.878-11.921 11.636-11.921 3.402 0 7.564 1.131 10.562 2.921l-3.491 7.162z"/></g><g fill="#222521"><path d="M36.519 32.533c-.089 5.183-.447 9.612-3.446 14.041-3.312 4.854-8.279 6.974-13.918 6.974-10.607 0-17.991-7.586-17.991-18.753 0-11.544 7.429-19.131 18.304-19.131 6.937 0 12.308 3.299 15.217 9.942l-8.324 3.675c-1.208-3.393-3.76-5.654-7.295-5.654-5.773 0-8.772 5.795-8.772 11.214 0 5.513 3.133 11.12 8.906 11.12 3.804 0 6.713-2.073 7.071-6.173h-7.161v-7.256h17.409zM68.027 16.842v19.979c0 4.571-.179 9.094-3.536 12.534-2.819 2.922-7.25 3.958-11.188 3.958-3.938 0-8.369-1.036-11.188-3.958-3.356-3.439-3.536-7.963-3.536-12.534v-19.979h8.772v18.707c0 4.617.313 9.659 5.952 9.659s5.953-5.042 5.953-9.659v-18.707h8.771zM80.561 24.664v5.937h9.891v7.822h-9.891v6.125h10.428v7.822h-19.2v-35.528h19.2v7.822h-10.428zM122.674 52.37h-10.92l-8.279-13.664h-.089v13.664h-8.772v-35.528h13.113c6.668 0 11.726 3.345 11.726 10.932 0 4.9-2.596 9.141-7.384 10.037l10.605 14.559zm-19.288-19.601h.85c2.864 0 6.086-.565 6.086-4.429s-3.222-4.429-6.086-4.429h-.85v8.858zM133.819 52.37h-8.772v-35.528h8.772v35.528zM146.53 44.548h10.517v7.822h-19.289v-35.528h8.772v27.706zM168.684 44.548h10.517v7.822h-19.289v-35.528h8.772v27.706zM192.449 46.197l-2.327 6.173h-9.309l12.979-35.528h9.577l12.71 35.528h-9.354l-2.193-6.173h-12.083zm6.131-18.376h-.089l-3.625 11.309h7.295l-3.581-11.309z"/></g></svg>